<svg width="127" height="48" viewBox="0 0 127 48" fill="none" xmlns="http://www.w3.org/2000/svg">
<g clip-path="url(#clip0_3_6102)">
<path d="M0.00390625 34.3574H5.93055V35.676H1.42815V38.7786H5.577V40.0313H1.42815V44.007H0.00390625V34.3574Z" fill="#6B6B6B"/>
<path d="M10.1283 36.4941C12.2097 36.4941 13.614 38.0524 13.614 40.3539C13.614 42.6554 12.2156 44.2137 10.1283 44.2137C8.04088 44.2137 6.64062 42.6554 6.64062 40.3539C6.64062 38.0524 8.04687 36.4941 10.1283 36.4941ZM10.1283 37.7488C8.80393 37.7488 7.99093 38.7477 7.99093 40.3459C7.99093 41.9442 8.80393 42.9431 10.1283 42.9431C11.4526 42.9431 12.2636 41.9442 12.2636 40.3459C12.2636 38.7477 11.4506 37.7488 10.1283 37.7488Z" fill="#6B6B6B"/>
<path d="M14.832 36.7021H16.1005V37.3014H16.1285C16.4181 36.848 16.9834 36.5723 17.6586 36.5723C17.9331 36.5753 18.2061 36.6123 18.4715 36.6822L18.2099 38.0327C17.9637 37.9569 17.7083 37.9152 17.4508 37.9088C16.6098 37.9088 16.1823 38.4882 16.1823 39.7548V44.0083H14.832V36.7021Z" fill="#6B6B6B"/>
<path d="M19.3203 36.7024H20.6167V37.2758H20.6427C20.8725 37.0228 21.1538 36.8218 21.4676 36.6864C21.7815 36.551 22.1207 36.4842 22.4624 36.4907C22.8264 36.4843 23.1868 36.5634 23.5146 36.7216C23.8424 36.8798 24.1286 37.1128 24.3501 37.4017H24.37C24.6196 37.1172 24.9267 36.8888 25.271 36.7318C25.6154 36.5747 25.9892 36.4926 26.3676 36.4907C27.8557 36.4907 28.9643 37.5256 28.9643 38.986V44.0086H27.64V39.2138C27.64 38.3327 27.0747 37.7533 26.2078 37.7533C25.3409 37.7533 24.7735 38.3746 24.7735 39.2977V44.0126H23.5111V39.2178C23.5111 38.3367 22.9319 37.7573 22.0909 37.7573C21.208 37.7573 20.6427 38.3786 20.6427 39.3017V44.0166H19.3203V36.7024Z" fill="#6B6B6B"/>
<path d="M33.5635 36.4941C35.547 36.4941 36.8714 37.9965 36.8714 40.1881V40.7535H31.534C31.5266 41.3474 31.732 41.9243 32.1132 42.3797C32.2916 42.5873 32.5145 42.7522 32.7651 42.8622C33.0158 42.9721 33.2879 43.0244 33.5614 43.0151C34.4843 43.0151 35.0356 42.6554 35.6428 41.6785L36.6896 42.3797C36.0423 43.5944 34.9677 44.2137 33.5755 44.2137C31.5479 44.2137 30.1797 42.6554 30.1797 40.3539C30.1797 38.0524 31.5659 36.4941 33.5635 36.4941ZM35.533 39.7206C35.4791 38.5219 34.72 37.6929 33.5635 37.6929C33.0323 37.7048 32.5266 37.9232 32.1537 38.3017C31.7808 38.6802 31.5699 39.1892 31.5659 39.7206H35.533Z" fill="#6B6B6B"/>
<path d="M38.0899 36.7021H39.3543V37.3014H39.3824C39.672 36.848 40.2373 36.5723 40.9124 36.5723C41.1869 36.5753 41.46 36.6123 41.7254 36.6822L41.4637 38.0327C41.2182 37.9571 40.9635 37.9154 40.7067 37.9088C39.8657 37.9088 39.4384 38.4882 39.4384 39.7548V44.0083H38.0859L38.0899 36.7021Z" fill="#6B6B6B"/>
<path d="M42.5742 33.9434H43.9246V44.0065H42.5742V33.9434Z" fill="#6B6B6B"/>
<path d="M47.5292 43.4568L44.7188 36.7021H46.137L48.2044 41.8965H48.2324L50.3278 36.7021H51.742L47.3995 47.1089H46.0011L47.5292 43.4568Z" fill="#6B6B6B"/>
<path d="M55.2422 34.3574H56.6624V39.0304H56.6884L60.5077 34.3574H62.2036L58.674 38.6029L62.5611 44.007H60.8372L57.7931 39.6717H57.7651L56.6624 41.0223V44.007H55.2422V34.3574Z" fill="#6B6B6B"/>
<path d="M65.874 36.4941C67.8596 36.4941 69.1819 37.9965 69.1819 40.1881V40.7535H63.8485C63.8402 41.3475 64.0459 41.9247 64.4279 42.3797C64.6057 42.5875 64.828 42.7525 65.0784 42.8625C65.3288 42.9725 65.6007 43.0246 65.874 43.0151C66.7969 43.0151 67.3482 42.6554 67.9554 41.6785L69.0022 42.3797C68.3549 43.5944 67.2803 44.2137 65.8881 44.2137C63.8626 44.2137 62.4922 42.6554 62.4922 40.3539C62.4922 38.0524 63.8765 36.4941 65.874 36.4941ZM67.8456 39.7206C67.7896 38.5219 67.0326 37.6929 65.874 37.6929C65.3428 37.7048 64.8372 37.9232 64.4642 38.3017C64.0913 38.6802 63.8806 39.1892 63.8765 39.7206H67.8456Z" fill="#6B6B6B"/>
<path d="M73.4678 36.4941C75.4533 36.4941 76.7757 37.9965 76.7757 40.1881V40.7535H71.4423C71.4349 41.3474 71.6403 41.9243 72.0215 42.3797C72.1996 42.5873 72.4219 42.7521 72.6723 42.8621C72.9226 42.9721 73.1945 43.0243 73.4678 43.0151C74.3926 43.0151 74.9439 42.6554 75.5492 41.6785L76.5979 42.3797C75.9487 43.5944 74.874 44.2137 73.4817 44.2137C71.4562 44.2137 70.0859 42.6554 70.0859 40.3539C70.0859 38.0524 71.4702 36.4941 73.4678 36.4941ZM75.4393 39.7206C75.3834 38.5219 74.6264 37.6929 73.4678 37.6929C72.9366 37.7048 72.4309 37.9232 72.058 38.3017C71.6851 38.6802 71.4742 39.1892 71.4702 39.7206H75.4393Z" fill="#6B6B6B"/>
<path d="M77.9961 36.7022H79.3186V37.3774H79.3466C79.613 37.0935 79.9357 36.8683 80.2941 36.7162C80.6525 36.5641 81.0387 36.4886 81.428 36.4945C83.3296 36.4945 84.708 38.0927 84.708 40.3542C84.708 42.6158 83.3296 44.214 81.4419 44.214C81.0561 44.2198 80.6731 44.1454 80.3174 43.9959C79.9616 43.8464 79.6405 43.6248 79.3746 43.345H79.3466V47.1089H77.9961V36.7022ZM81.3181 37.7491C81.0599 37.7475 80.804 37.7969 80.565 37.8946C80.3261 37.9923 80.1086 38.1362 79.9254 38.3181C79.7422 38.5001 79.5968 38.7165 79.4975 38.9548C79.3981 39.1931 79.3468 39.4487 79.3466 39.707V40.9896C79.3431 41.2458 79.3904 41.5002 79.4857 41.7382C79.5809 41.9761 79.7223 42.1929 79.9017 42.376C80.081 42.5591 80.2948 42.7049 80.5307 42.805C80.7665 42.9051 81.0199 42.9577 81.2761 42.9594C82.5446 42.9594 83.3577 41.9606 83.3577 40.3622C83.3577 38.764 82.5726 37.7491 81.3181 37.7491Z" fill="#6B6B6B"/>
<path d="M87.038 35.676H84.0977V34.3574H91.3887V35.676H88.4662V44.007H87.0461L87.038 35.676Z" fill="#6B6B6B"/>
<path d="M91.1797 36.7021H92.4482V37.3014H92.476C92.7657 36.848 93.329 36.5723 94.0062 36.5723C94.2806 36.5753 94.5537 36.6123 94.8192 36.6822L94.5574 38.0327C94.3113 37.9569 94.0559 37.9152 93.7985 37.9088C92.9575 37.9088 92.53 38.4882 92.53 39.7548V44.0083H91.1797V36.7021Z" fill="#6B6B6B"/>
<path d="M95.6035 36.7021H96.9538V41.2093C96.9538 42.38 97.4911 42.9594 98.5938 42.9594C99.5925 42.9594 100.262 42.2701 100.262 41.2093V36.7021H101.612V44.0082H100.318V43.3589H100.276C99.8342 43.8964 99.0352 44.214 98.1943 44.214C96.5543 44.214 95.5977 43.2151 95.5977 41.457L95.6035 36.7021Z" fill="#6B6B6B"/>
<path d="M106.271 36.4933C107.048 36.4726 107.806 36.7321 108.407 37.2246C109.001 37.7106 109.387 38.4064 109.483 39.1684L108.187 39.4302C108.007 38.3693 107.304 37.748 106.271 37.748C105.003 37.748 104.19 38.7469 104.19 40.3452C104.19 41.9435 105.003 42.9424 106.271 42.9424C107.304 42.9424 107.979 42.343 108.187 41.2602L109.483 41.5239C109.387 42.2894 109.002 42.9891 108.407 43.4798C107.804 43.9681 107.046 44.2227 106.271 44.1971C104.246 44.1971 102.84 42.6267 102.84 40.3372C102.84 38.0476 104.246 36.4933 106.271 36.4933Z" fill="#6B6B6B"/>
<path d="M110.66 33.9434H112.011V39.7871H112.039L114.869 36.7004H116.689L114 39.5533L116.855 44.0065H115.269L113.091 40.4903H113.071L112.011 41.649V44.0065H110.66V33.9434Z" fill="#6B6B6B"/>
<path d="M117.645 34.0117H119.119V35.4322H117.645V34.0117ZM117.712 36.7008H119.059V44.0069H117.708L117.712 36.7008Z" fill="#6B6B6B"/>
<path d="M120.582 36.702H121.879V37.3492H121.906C122.168 37.0772 122.483 36.8612 122.831 36.7143C123.179 36.5673 123.554 36.4924 123.932 36.4942C125.599 36.4942 126.688 37.583 126.688 39.2911V44.0061H125.338V39.4989C125.338 38.4101 124.716 37.7488 123.67 37.7488C122.623 37.7488 121.934 38.4521 121.934 39.4989V44.008H120.582V36.702Z" fill="#6B6B6B"/>
<path d="M82.415 0H76.8359V4.97862H82.415V0Z" fill="#6B6B6B"/>
<path d="M69.5463 24.098V12.0869H74.4604V7.2202H69.5463V0H63.9533V7.21619H60.7773V12.0829H63.9553V29.0826H74.4604V24.0879L69.5463 24.098Z" fill="#6B6B6B"/>
<path d="M21.5632 7.21289H14.8815L4.89384 24.0966H0.00390625V29.0912H7.81222L15.9841 15.2642V29.0813H22.576L30.7098 15.2243V29.0813H36.3029V7.21289H29.5912L21.5632 20.7743V7.21289Z" fill="#6B6B6B"/>
<path d="M82.4211 7.21289H76.8281V29.0813H82.4211V7.21489V7.21289Z" fill="#6B6B6B"/>
<path d="M82.4149 0H76.8359V4.98262H82.4149V0Z" fill="#6B6B6B"/>
<path d="M49.4294 6.95898H49.3874C43.3729 6.95898 38.543 11.9536 38.543 18.1469C38.543 24.3402 43.3729 29.3348 49.3874 29.3348H49.4294C55.4459 29.3348 60.232 24.2922 60.232 18.1469C60.232 12.0015 55.4459 6.95898 49.4294 6.95898ZM49.4294 23.7409H49.3874C46.4231 23.7409 44.136 21.2416 44.136 18.1469C44.136 15.0523 46.4231 12.553 49.3874 12.553H49.4294C52.3099 12.553 54.645 15.0942 54.645 18.1469C54.641 21.2375 52.3538 23.7369 49.4294 23.7369V23.7409Z" fill="#6B6B6B"/>
<path d="M116.982 24.3677C119.23 24.3677 120.63 23.0552 121.011 21.9084H126.605C126.393 23.7325 123.976 29.3323 116.978 29.3323C110.66 29.3323 105.992 24.5816 105.992 18.1325C105.992 11.8133 110.786 6.93457 116.807 6.93457C122.532 6.93457 126.994 11.9391 126.994 18.0486C126.994 18.6839 126.952 19.2793 126.91 19.7028H111.728C112.106 22.3759 113.718 24.3677 116.982 24.3677ZM111.9 15.7151H121.489C120.889 13.5175 119.411 11.8973 116.824 11.8973C114.113 11.8973 112.535 13.4675 111.906 15.7151H111.9Z" fill="#6B6B6B"/>
<path d="M101.081 7.21895L95.7514 21.5234L90.422 7.21895H84.4414L92.901 29.0834H98.53L107.039 7.23094H101.081C101.081 7.23094 101.081 7.21695 101.081 7.21895Z" fill="#6B6B6B"/>
</g>
<defs>
<clipPath id="clip0_3_6102">
<rect width="126.99" height="47.1094" fill="white" transform="translate(0.00390625)"/>
</clipPath>
</defs>
</svg>
