<svg width="110" height="14" viewBox="0 0 110 14" fill="none" xmlns="http://www.w3.org/2000/svg">
<g clip-path="url(#clip0_3_6147)">
<path d="M9.26758 7.74811C9.26758 9.57088 7.906 10.647 6.36872 10.647C4.69968 10.647 3.46985 9.43911 3.46985 7.74811V0.457031H0V7.59439C0 10.9325 2.28395 13.8314 6.39068 13.8314C10.6511 13.8314 12.9351 10.9325 12.9351 7.59439V0.457031H9.26758V7.74811Z" fill="#6B6B6B"/>
<path d="M22.2045 0.149414C17.7903 0.149414 15.6602 3.04828 15.6602 6.38637V13.5237H19.1519V6.23263C19.1519 4.40986 20.5135 3.33377 22.0508 3.33377C23.7199 3.33377 24.9497 4.54163 24.9497 6.23263V13.5237H28.4415V6.38637C28.5953 3.04828 26.3112 0.149414 22.2045 0.149414Z" fill="#6B6B6B"/>
<path d="M35.2911 13.5459V0.457031H31.7773V2.2798V13.5459H35.2911Z" fill="#6B6B6B"/>
<path d="M44.8654 8.36302L41.2197 0.457031H37.5742L43.6575 13.5459H46.0731L52.1564 0.457031H48.5109L44.8654 8.36302Z" fill="#6B6B6B"/>
<path d="M57.9552 13.5459V0.457031H54.4414V2.2798V13.5459H57.9552Z" fill="#6B6B6B"/>
<path d="M64.9401 4.10234C64.9401 3.48743 65.7088 3.0482 66.763 3.0482C67.6854 3.0482 68.5858 3.50939 69.3543 3.97057L71.0234 1.37916C70.101 0.764251 68.2783 0.0175781 66.6092 0.0175781C64.0178 0.0175781 61.5801 1.53289 61.5801 4.1243C61.5801 8.38475 67.9708 7.61612 67.9708 9.59262C67.9708 10.2075 67.2022 10.6467 66.3018 10.6467C64.9401 10.6467 63.5566 10.1856 62.6562 9.28516L60.6797 12.0303C62.195 13.0844 64.1716 13.8531 65.9943 13.8531C68.7394 13.8531 71.1551 12.3377 71.1551 9.74634C71.3309 5.17843 64.9401 5.92511 64.9401 4.10234Z" fill="#6B6B6B"/>
<path d="M77.566 13.5459V0.457031H74.0742V2.2798V13.5459H77.566Z" fill="#6B6B6B"/>
<path d="M87.1423 0.149414C83.1893 0.149414 80.1367 3.202 80.1367 7.00128C80.1367 10.8005 83.1893 13.8532 87.1423 13.8532C91.0953 13.8532 94.1479 10.8005 94.1479 7.00128C94.1479 3.202 91.0953 0.149414 87.1423 0.149414ZM87.1423 10.4931C85.1657 10.4931 83.6504 8.97777 83.6504 7.00128C83.6504 5.02477 85.012 3.35573 87.1423 3.35573C89.2725 3.35573 90.6341 5.02477 90.6341 7.00128C90.6341 8.97777 89.2725 10.4931 87.1423 10.4931Z" fill="#6B6B6B"/>
<path d="M103.107 0.149414C98.8465 0.149414 96.5625 3.04828 96.5625 6.38637V13.5237H100.054V6.23263C100.054 4.40986 101.416 3.33377 102.953 3.33377C104.622 3.33377 105.852 4.54163 105.852 6.23263V13.5237H109.498V6.38637C109.498 3.04828 107.214 0.149414 103.107 0.149414Z" fill="#6B6B6B"/>
</g>
<defs>
<clipPath id="clip0_3_6147">
<rect width="109.498" height="13.9062" fill="white"/>
</clipPath>
</defs>
</svg>
