<svg width="114" height="30" viewBox="0 0 114 30" fill="none" xmlns="http://www.w3.org/2000/svg">
<g clip-path="url(#clip0_3_6142)">
<path d="M76.5613 6.15125C74.554 6.15125 73.0061 6.86656 71.57 8.35949V6.49914H67.6279V24.805H71.8695V14.188C71.8695 11.7574 73.3168 10.2198 75.513 10.2198C75.912 10.2198 76.2618 10.2691 76.5111 10.3184L79.4551 6.44891C78.3072 6.25078 77.3091 6.15125 76.5604 6.15125H76.5613ZM113.14 6.49914H108.25L103.734 12.4699L99.2176 6.49821H94.3267L101.227 15.7228L94.3267 24.805H99.3171L103.708 19.0137L108.1 24.805H113.14L106.194 15.7376L113.14 6.49914ZM24.0622 2.38125C22.6148 4.31602 22.2651 4.96063 20.8679 4.96063H0.0078125V29.7656H8.19243C10.0388 29.7656 11.835 28.8727 12.9828 27.3844C14.4804 25.4003 14.6795 24.805 16.1268 24.805H37.0372V0H28.8023C26.9559 0 25.1598 0.892969 24.0612 2.38125H24.0622ZM30.5492 18.4054H21.8158C19.9192 18.4054 18.1732 19.1988 17.0254 20.7364C15.5278 22.7214 15.2283 23.3167 13.8312 23.3167H6.44556V11.4105H15.179C17.0747 11.4105 18.8215 10.5175 19.9694 9.02922C21.467 7.09445 21.866 6.49914 23.2129 6.49914H30.5492V18.4054ZM61.8887 12.3034C63.736 11.2616 65.0327 9.42547 65.0327 6.99492C65.0327 3.42305 62.2887 0 58.2963 0H46.3194V24.805H58.2963C62.6375 24.805 65.6317 21.7289 65.6317 17.8594C65.6317 15.5777 64.5843 13.5927 61.8887 12.3034ZM50.561 3.86953H57.9466C59.793 3.86953 60.8906 5.60617 60.8906 7.14375C60.8906 9.02922 59.2442 10.3184 57.6973 10.3184H50.561V3.86953ZM57.6973 20.9355H50.561V14.188H57.9466C59.8432 14.188 61.3901 15.8251 61.3901 17.5124C61.3901 19.397 59.4442 20.9355 57.6973 20.9355Z" fill="#6B6B6B"/>
<path d="M90.0856 19.5459C89.387 20.6379 88.0392 21.2826 86.5416 21.2826C84.1976 21.2826 82.2507 19.6947 82.2507 17.2642H94.926C95.1259 16.5201 95.1752 16.1731 95.1752 15.5276C95.1752 9.97162 91.732 6.15137 86.5426 6.15137C81.4517 6.15137 77.8594 9.77349 77.8594 15.6764C77.8594 21.4314 81.302 25.1521 86.6421 25.1521C90.3851 25.1521 93.6786 23.3169 94.6264 19.5459H90.0856ZM86.5416 10.0209C88.8875 10.0209 90.6846 11.5092 90.6344 13.7416H82.3C82.3 11.5594 84.1976 10.0209 86.5416 10.0209Z" fill="#6B6B6B"/>
</g>
<defs>
<clipPath id="clip0_3_6142">
<rect width="113.481" height="29.7656" fill="white" transform="translate(0.0078125)"/>
</clipPath>
</defs>
</svg>
