<svg width="137" height="26" viewBox="0 0 137 26" fill="none" xmlns="http://www.w3.org/2000/svg">
<g clip-path="url(#clip0_3_6095)">
<path fill-rule="evenodd" clip-rule="evenodd" d="M58.9726 6.4259C60.7379 6.4259 62.4659 6.74667 63.5068 7.03672L63.5959 7.06185L63.6798 6.63318H70.8768V9.01782L69.2837 9.19018L71.5595 17.2635H71.7585L74.2903 7.00668H78.5857L81.032 17.2635H81.2028L83.3362 9.19018L81.7148 9.01782L82.0846 6.63318H88.0587L88.0578 8.2413C87.9291 8.49909 87.8089 8.76238 87.6991 9.03078L87.0338 9.16142C86.651 9.2167 86.4785 9.35163 86.3652 9.69402L86.3515 9.73608L82.8526 21.6018H78.3581L76.1393 11.977H75.9686L73.7214 21.6018H68.6011L65.0167 9.70732C64.9077 9.37695 64.7725 9.31043 64.4611 9.22957L64.4194 9.21893L64.1685 9.1646L64.1847 9.22957V11.4078L61.1538 11.2075L60.8705 9.71848C60.8425 9.48948 60.7855 9.37506 60.5877 9.31772L60.4973 9.29137C60.1143 9.1864 59.4807 9.08863 58.7748 9.08863C57.3584 9.08863 56.5651 9.63265 56.5651 10.5488C56.5651 11.55 57.6986 11.8848 59.104 12.2104L60.0529 12.4285L60.1841 12.46C62.3314 12.9819 64.6097 13.8637 64.6097 17.0479C64.6097 20.541 61.8057 21.9724 58.2081 21.9724C55.6988 21.9724 53.2431 21.3212 52.6443 20.9699L52.5996 20.9418V16.7904L55.6304 17.0194L55.9141 18.6513L55.923 18.721C55.9545 18.9302 56.0233 19.029 56.2538 19.0806L56.3203 19.102L56.3959 19.1244L56.4806 19.1474L56.578 19.1716C56.9867 19.269 57.6219 19.367 58.435 19.367C59.9357 19.367 60.7855 18.9377 60.7855 17.8782C60.7855 16.7517 59.6893 16.401 58.2789 16.1445L57.6338 16.0271L57.359 15.9744C55.1499 15.54 52.7133 14.7535 52.7133 11.4365C52.7133 7.88637 55.7154 6.4259 58.9726 6.4259ZM32.8504 6.4259C37.0895 6.4259 38.8162 7.57689 38.8503 11.4889L38.8508 11.6083L38.8509 18.6072L38.8518 18.684L38.8543 18.7524L38.8589 18.8149C38.8807 19.0297 38.9583 19.0847 39.2255 19.1268L39.3016 19.1379L40.4476 19.3321V16.7904L43.462 17.0194L43.7441 18.6513C43.7715 18.9088 43.8285 19.0235 44.082 19.0806L44.1481 19.102L44.2233 19.1244L44.3076 19.1474L44.4045 19.1716C44.8108 19.269 45.4426 19.367 46.2513 19.367C47.7438 19.367 48.5889 18.9377 48.5889 17.8782C48.5889 16.7893 47.5702 16.4253 46.2352 16.1705L45.4456 16.0254L45.1727 15.9727L44.9747 15.9326L44.7818 15.8915C42.7007 15.4358 40.5608 14.5534 40.5608 11.4365C40.5608 7.88637 43.5465 6.4259 46.7859 6.4259C48.9366 6.4259 51.0347 6.90753 51.8854 7.22386L51.9696 7.25625V11.4078L48.9552 11.2075L48.6734 9.71848C48.6457 9.48948 48.5889 9.37506 48.3922 9.31772C48.0259 9.20331 47.3498 9.08863 46.5892 9.08863C45.1805 9.08863 44.3916 9.63265 44.3916 10.5488C44.3916 11.5673 45.5581 11.896 46.9892 12.2271L47.6593 12.3813C49.8847 12.8965 52.3923 13.6982 52.3923 17.0479C52.3923 20.5408 49.6036 21.9724 46.0256 21.9724C43.7465 21.9724 41.517 21.4301 40.6932 21.068L40.6538 21.0504V21.6287H35.4702L35.1881 20.0827L35.0475 20.0541C33.9773 21.1135 32.5686 21.9724 30.3149 21.9724C26.7659 21.9724 26.202 19.5104 26.202 17.7351C26.202 14.9007 27.9141 13.5816 31.365 13.3332L34.7096 13.0972L34.7095 11.4673L34.708 11.3051L34.7059 11.198L34.7002 11.0414L34.6947 10.9399C34.6297 9.91916 34.3033 9.26064 32.8221 9.26064L32.6494 9.26193L32.5383 9.26433C31.3896 9.29721 30.7844 9.57668 30.7661 11.1062L30.7656 11.1789L26.7934 10.8349C26.7934 7.0088 30.1898 6.43711 32.7724 6.42606L32.8504 6.4259ZM134.92 0L134.921 18.5523L134.924 18.6185C134.937 18.8676 135.002 18.9276 135.288 18.973L136.7 19.1828V21.4246H131.528L131.25 19.8355L131.055 19.8071C129.888 20.9705 128.525 21.7651 126.496 21.7651C123.214 21.7651 121.101 19.6369 121.101 14.2168C121.101 8.51309 123.91 6.35644 126.996 6.35644C128.57 6.35644 129.8 6.89727 130.841 7.66217L130.916 7.71853V3.40523C130.916 3.1364 130.817 2.94397 130.593 2.85208L130.555 2.83769L129.025 2.29853L129.332 0H134.92ZM118.747 6.21861C119.383 6.21861 120.633 6.32658 121.181 6.46425L121.235 6.4786V11.7361L117.803 11.6205L117.518 10.0895C117.46 9.82955 117.374 9.77178 117.145 9.77178C116.445 9.77178 115.619 10.3347 115.167 10.7141L115.086 10.7828V18.4878C115.088 18.893 115.128 18.9823 115.505 19.0129L118.375 19.2468V21.5578H109.023V19.2179L110.309 19.0446C110.697 18.9887 110.763 18.9057 110.767 18.5077V10.0028C110.767 9.69951 110.689 9.50149 110.433 9.40879L110.395 9.39626L108.866 8.85251L108.854 8.82401L109.165 6.50748H114.199L114.543 8.81852H114.714C115.658 7.34521 116.917 6.21861 118.747 6.21861ZM19.8706 0.829147C25.1278 0.829147 26.7185 3.63518 26.7185 6.92755C26.7185 11.8593 23.7948 13.873 19.0765 13.9127L18.933 13.9134H16.8587L16.8592 18.5755L16.8608 18.6481L16.8644 18.7148C16.8824 18.9543 16.9557 19.0122 17.2383 19.0562L17.3137 19.067L21.3767 19.2961V21.5578H10.2385V21.5512L10.2261 21.5578H0.341617V19.306L2.76306 19.106C3.13127 19.0795 3.2047 18.9785 3.21286 18.6177L3.21368 18.5363V8.69208C3.21368 8.28375 2.90974 8.35112 0.792844 9.07567L0.0117188 6.73798L4.84992 3.93845H7.46596L7.46605 18.5779L7.467 18.655L7.46943 18.724C7.48388 19.0066 7.55479 19.077 7.8784 19.1032L7.91687 19.106L10.2261 19.306L10.2385 19.3121V19.2961L12.0286 19.0955C12.3995 19.0423 12.474 18.9639 12.4824 18.6045L12.4832 18.523V3.89276C12.4832 3.47776 12.4297 3.3565 12.0672 3.32311L12.0286 3.31996L10.2385 3.11972V0.829147H19.8706ZM34.63 15.3237L32.7147 15.4655C31.0536 15.5789 30.4621 16.0044 30.4621 17.1395C30.4621 18.2749 31.1381 18.7004 32.0674 18.7004C32.996 18.7004 33.9246 18.1932 34.5703 17.723L34.63 17.6789V15.3237ZM128.226 9.65059C126.186 9.65059 125.373 11.5799 125.356 14.0834V14.1652C125.356 16.9368 126.136 18.4798 127.891 18.4798C128.811 18.4798 129.811 17.9405 130.557 17.3073L130.623 17.2511V10.5078C129.926 10.0221 129.034 9.65059 128.226 9.65059ZM18.4619 3.97299H16.8V10.8115L18.2641 10.8113L18.3749 10.8103L18.5383 10.8065L18.6442 10.8026L18.7999 10.7945C20.4774 10.6909 22.1227 10.048 22.1227 7.17933C22.1227 4.45503 20.4608 3.97299 18.4619 3.97299Z" fill="#6B6B6B"/>
<path fill-rule="evenodd" clip-rule="evenodd" d="M98.2439 1.51562C104.87 1.51562 110.242 6.94094 110.242 13.6333C110.242 20.3259 104.87 25.7509 98.2439 25.7509C91.6175 25.7509 86.2461 20.3259 86.2461 13.6333C86.2461 6.94094 91.6175 1.51562 98.2439 1.51562ZM98.2439 3.97702C92.9634 3.97702 88.6829 8.30032 88.6829 13.6333C88.6829 18.9665 92.9634 23.2896 98.2439 23.2896C103.524 23.2896 107.805 18.9665 107.805 13.6333C107.805 8.30032 103.524 3.97702 98.2439 3.97702ZM98.2439 6.43842C102.178 6.43842 105.367 9.65973 105.367 13.6333C105.367 17.607 102.178 20.8281 98.2439 20.8281C94.3093 20.8281 91.1197 17.607 91.1197 13.6333C91.1197 9.65973 94.3093 6.43842 98.2439 6.43842ZM99.3932 8.52114H97.0946C96.8079 8.52114 96.5736 8.77307 96.5573 9.09066L96.5564 9.12628V11.5524C96.5598 11.6425 96.5899 11.7336 96.6439 11.8058L96.6654 11.832L97.001 12.2102C97.1341 12.3594 97.1409 12.5965 97.0225 12.755L97.001 12.7806L96.6654 13.1588C96.6053 13.2261 96.5693 13.3146 96.5615 13.4086L96.5598 13.444L96.5564 18.1403C96.5564 18.4625 96.7804 18.726 97.0628 18.7444L97.0946 18.7454H99.3932C99.6799 18.7454 99.9133 18.4935 99.9296 18.1759L99.9305 18.1403V15.8978C99.9305 15.8027 99.9013 15.7112 99.8472 15.6388L99.8258 15.6126L99.4893 15.2344C99.3571 15.0852 99.3503 14.8481 99.4687 14.6896L99.4893 14.6639L99.8258 14.2857C99.8859 14.2185 99.9219 14.1299 99.9296 14.0359L99.9305 14.0005V9.12628C99.9305 8.79204 99.6902 8.52114 99.3932 8.52114Z" fill="#6B6B6B"/>
</g>
<defs>
<clipPath id="clip0_3_6095">
<rect width="136.475" height="25.75" fill="white" transform="translate(0.0117188)"/>
</clipPath>
</defs>
</svg>
