<svg width="105" height="120" viewBox="0 0 105 120" fill="none" xmlns="http://www.w3.org/2000/svg">
<g clip-path="url(#clip0_3_6498)">
<path fill-rule="evenodd" clip-rule="evenodd" d="M0 52C0 23.2812 23.505 0 52.5 0C81.495 0 105 23.2812 105 52V120H76.7308H48.4615H0V88V70V52ZM8.07692 88V112H40.3846V88C40.3846 79.1634 33.1523 72 24.2308 72C15.3092 72 8.07692 79.1634 8.07692 88ZM48.4615 112V88C48.4615 74.7452 37.6131 64 24.2308 64C18.0248 64 12.3638 66.3108 8.07692 70.1112V70C8.07692 53.4315 21.6375 40 38.3654 40C55.0932 40 68.6538 53.4315 68.6538 70V112H48.4615ZM96.9231 112H76.7308V70C76.7308 49.0132 59.554 32 38.3654 32C26.2759 32 15.4924 37.5386 8.46027 46.1937C11.3293 24.6375 29.953 8 52.5 8C77.0342 8 96.9231 27.6995 96.9231 52V112Z" fill="white"/>
</g>
<defs>
<clipPath id="clip0_3_6498">
<rect width="105" height="120" fill="white"/>
</clipPath>
</defs>
</svg>
