<svg width="20" height="20" viewBox="0 0 20 20" fill="none" xmlns="http://www.w3.org/2000/svg">
<g clip-path="url(#clip0_3_6523)">
<path d="M17.9954 6.00234C17.9005 5.65018 17.715 5.32901 17.4574 5.07082C17.1998 4.81262 16.879 4.62639 16.5271 4.53068C15.2221 4.17234 10.0013 4.16651 10.0013 4.16651C10.0013 4.16651 4.78125 4.16068 3.47542 4.50318C3.12369 4.6033 2.8036 4.79216 2.54589 5.05162C2.28818 5.31109 2.10149 5.63244 2.00375 5.98484C1.65958 7.28984 1.65625 9.99651 1.65625 9.99651C1.65625 9.99651 1.65292 12.7165 1.99458 14.0082C2.18625 14.7223 2.74875 15.2865 3.46375 15.479C4.78208 15.8373 9.98875 15.8432 9.98875 15.8432C9.98875 15.8432 15.2096 15.849 16.5146 15.5073C16.8667 15.4118 17.1877 15.226 17.446 14.9683C17.7042 14.7107 17.8907 14.39 17.9871 14.0382C18.3321 12.734 18.3346 10.0282 18.3346 10.0282C18.3346 10.0282 18.3513 7.30734 17.9954 6.00234ZM8.33125 12.504L8.33542 7.50401L12.6746 10.0082L8.33125 12.504Z" fill="white" fill-opacity="0.65"/>
</g>
<defs>
<clipPath id="clip0_3_6523">
<rect width="20" height="20" fill="white"/>
</clipPath>
</defs>
</svg>
