<svg width="94" height="28" viewBox="0 0 94 28" fill="none" xmlns="http://www.w3.org/2000/svg">
<g clip-path="url(#clip0_3_6326)">
<path d="M3.10705 8.81114C2.92691 8.9898 2.73746 9.15856 2.53973 9.3177V6.63593H0.148438V27.5096H2.54654V19.8556C5.9981 23.8279 9.97675 23.429 12.5507 21.8213C15.7052 19.8692 17.0565 15.6609 15.9285 11.7766C14.1792 6.05515 7.01146 4.08932 3.10705 8.81114ZM7.49139 20.6529C4.33681 20.6529 2.40471 17.9507 2.3778 14.5733C2.35044 11.1958 4.97172 8.40547 8.11285 8.37855C11.2535 8.35178 13.7393 11.0064 13.7393 14.5595C13.7101 17.947 10.9398 20.669 7.55247 20.6397H7.55203H7.48444L7.49139 20.6529Z" fill="#7D888E"/>
<path d="M88.3945 1.77246V6.50109H93.4272V8.66271H88.5228C88.4889 9.18271 88.4351 9.56102 88.4351 10.0137C88.4351 12.4997 88.5296 14.9921 88.4351 17.4442C88.2863 20.3694 89.7862 20.9908 92.4878 20.4503C92.7169 20.3877 92.9424 20.3132 93.1634 20.2276C93.7242 22.058 93.3728 22.6121 91.5487 22.8416C87.7459 23.2938 85.9217 21.6862 85.9154 17.8431V8.76402L83.7539 8.66271V6.63597L85.9016 6.50109V1.77246H88.3945Z" fill="#7D888E"/>
<path d="M38.7934 22.5506H36.375V6.63575H38.7462V10.3106C40.4144 7.7911 42.2652 6.18334 45.2243 6.30491V8.78406C40.428 9.68267 38.7869 11.7158 38.7869 16.6875C38.7934 18.5854 38.7934 20.5175 38.7934 22.5506Z" fill="#7D888E"/>
<path d="M60.0658 0.00926994V9.26376C55.851 5.48757 52.0407 5.21056 48.8118 8.20291C45.5831 11.1957 45.299 16.5797 48.0287 20.0855C49.1208 21.4999 50.696 22.4616 52.453 22.7877C55.5128 23.4027 57.911 22.2068 60.0525 19.5519V22.5039H62.3694V0.00231934H60.0658V0.00926994ZM54.2632 20.7543C51.1088 20.6799 48.6636 17.8901 48.7312 14.4244C48.7988 10.9591 51.1562 8.34504 54.3582 8.38556C57.5602 8.42594 60.1334 11.1753 60.0864 14.6879C60.0593 18.0317 57.3774 20.8218 54.27 20.7543H54.2632Z" fill="#7D888E"/>
<path d="M32.1938 11.3646C32.052 8.92595 30.5525 7.31138 28.2152 6.68328C25.3392 5.95327 22.2954 6.30674 19.6635 7.67624L20.3388 9.65521C23.1692 8.60161 24.6685 8.3922 26.5196 8.62202C28.6003 8.88542 30.4444 10.8712 29.7351 13.2288L29.0057 13.0736C26.3035 12.5671 23.635 12.2695 21.0614 13.4586C18.6327 14.4881 17.499 17.2913 18.5285 19.7199C18.8907 20.5742 19.4937 21.3043 20.2642 21.8212C21.6089 22.718 23.2224 23.1215 24.8309 22.9629C26.7704 22.8146 28.5824 21.9389 29.9038 20.5109L30.0188 22.5376H32.2682C32.2682 22.1797 32.3558 21.862 32.349 21.605C32.329 18.1805 32.3964 14.742 32.1938 11.3646ZM27.5801 20.3081C25.6011 21.2607 23.5814 21.4022 21.7237 20.0247C20.4979 19.0244 20.3154 17.2202 21.3152 15.9945C21.498 15.7713 21.7127 15.5768 21.953 15.4175C24.2126 14.3736 26.7812 14.2123 29.1539 14.9648C29.5567 15.1494 29.849 15.5122 29.9444 15.9445C30.2884 17.7683 29.3035 19.5833 27.5868 20.2881L27.5801 20.3081Z" fill="#7D888E"/>
<path d="M74.096 6.14951C69.4335 6.07187 65.5901 9.78906 65.5129 14.4516C65.4351 19.1143 69.1522 22.9575 73.8151 23.0352C78.4741 23.1125 82.3155 19.4011 82.3982 14.742V14.6879C82.4847 10.07 78.8114 6.25629 74.1933 6.16992C74.19 6.16992 74.1869 6.16979 74.184 6.16979L74.096 6.14951ZM74.096 20.8011C70.8064 20.8011 68.1987 18.0249 68.2124 14.4988C68.2257 10.9724 70.732 8.34487 74.0692 8.37164C77.4061 8.399 79.9257 11.1281 79.9257 14.5798C79.9257 18.0316 77.3655 20.7881 74.0893 20.8011H74.096Z" fill="#7D888E"/>
</g>
<defs>
<clipPath id="clip0_3_6326">
<rect width="93.4693" height="27.6562" fill="white" transform="translate(0.015625)"/>
</clipPath>
</defs>
</svg>
