<svg width="240" height="127" viewBox="0 0 240 127" fill="none" xmlns="http://www.w3.org/2000/svg">
<path d="M17.9855 64.1301C15.8054 64.1301 13.9584 63.8879 12.4445 63.4035C10.9306 62.919 9.62862 62.4648 8.53855 62.0409C7.5091 61.5564 6.57046 61.3142 5.72266 61.3142C4.45096 61.3142 3.11869 62.1014 1.72588 63.6759H1.18087L0 42.057H0.817522C4.87486 55.4401 10.5975 62.1317 17.9855 62.1317C20.5289 62.1317 22.5575 61.2536 24.0715 59.4975C25.5855 57.6807 26.3424 55.319 26.3424 52.4123C26.3424 49.99 25.8882 47.9008 24.9799 46.1446C24.0715 44.3279 22.8604 42.7231 21.3464 41.3303C19.8325 39.8769 18.1672 38.5447 16.3505 37.3335C14.5943 36.1224 12.8079 34.8809 10.9912 33.6092C9.235 32.3376 7.59993 30.9447 6.086 29.4308C4.63263 27.8563 3.45176 26.0699 2.5434 24.0715C1.63504 22.0731 1.18087 19.7114 1.18087 16.9863C1.18087 13.8979 1.75616 11.2031 2.90675 8.90195C4.11789 6.54018 5.78322 4.72347 7.90275 3.45177C10.0828 2.1195 12.5656 1.45338 15.3512 1.45338C16.9863 1.45338 18.4094 1.63505 19.6206 1.99839C20.8317 2.36174 21.8612 2.72508 22.709 3.08841C23.6173 3.39121 24.3743 3.5426 24.9799 3.5426C25.5855 3.5426 26.1002 3.42149 26.5241 3.17926C26.948 2.93703 27.4022 2.51313 27.8866 1.90756H28.4316L28.7041 19.2572H27.8866C26.2515 13.8676 24.3743 9.90108 22.2548 7.35771C20.1959 4.75374 17.8341 3.45177 15.1696 3.45177C12.929 3.45177 11.1123 4.20873 9.71947 5.72266C8.38721 7.17603 7.72105 9.11386 7.72105 11.5362C7.72105 13.6556 8.17523 15.5026 9.08358 17.0772C9.99194 18.5911 11.1728 19.9536 12.6262 21.1648C14.1401 22.3153 15.7751 23.466 17.5313 24.6165C19.348 25.7066 21.1344 26.8874 22.8907 28.1591C24.7074 29.4308 26.3424 30.8842 27.7958 32.5193C29.3097 34.1543 30.5209 36.1224 31.4292 38.4236C32.3376 40.7248 32.7918 43.4499 32.7918 46.5988C32.7918 50.0506 32.1559 53.1087 30.8842 55.7732C29.6731 58.3772 27.9471 60.4361 25.7065 61.9501C23.4659 63.4035 20.8922 64.1301 17.9855 64.1301ZM38.1482 17.8947C40.9944 17.2891 43.3259 15.8963 45.1426 13.7162C47.0199 11.5362 48.443 8.62939 49.4118 4.99597H50.1386V17.8947H55.952V20.4381H50.1386V54.1382C50.1386 56.7421 50.4716 58.6497 51.1378 59.8608C51.8039 61.0114 53.0755 61.8592 54.9528 62.4042V63.2217H38.1482V62.4042C38.996 62.162 39.6016 61.5867 39.9649 60.6784C40.3888 59.7095 40.6008 58.3166 40.6008 56.4999V26.4332C40.6008 24.3743 40.4494 22.7392 40.1466 21.5281C39.9043 20.3169 39.2383 19.3784 38.1482 18.7122V17.8947ZM70.7079 64.1301C68.2856 64.1301 66.1358 63.6154 64.2585 62.5859C62.3813 61.4959 60.9279 60.0122 59.8984 58.1349C58.8689 56.1971 58.3542 53.9867 58.3542 51.5039C58.3542 47.0227 59.8379 42.7231 62.8052 38.6052C65.7725 34.4268 70.4354 30.1878 76.7939 25.8882C76.2489 23.042 75.4617 20.9831 74.4322 19.7114C73.4632 18.4397 72.131 17.8038 70.4354 17.8038C68.8003 17.8038 67.5589 18.3489 66.7111 19.4388C65.9239 20.4683 65.4394 22.1639 65.2577 24.5257C65.0761 26.6452 64.1072 27.7049 62.351 27.7049C61.5032 27.7049 60.8068 27.4324 60.2618 26.8874C59.7167 26.3424 59.4443 25.6157 59.4443 24.7074C59.4443 23.0723 60.0196 21.5887 61.1701 20.2564C62.3208 18.8636 63.8649 17.7735 65.8028 16.9863C67.7406 16.1385 69.8904 15.7146 72.2521 15.7146C81.0934 15.7146 86.0593 20.1656 87.149 29.0675L90.419 55.9549C90.9039 59.77 91.8728 61.9198 93.3258 62.4042V63.2217H89.6926C87.2706 63.2217 85.4234 62.6767 84.1516 61.5867C82.9403 60.4361 82.0628 58.4983 81.5175 55.7732C80.4274 58.4378 78.9437 60.4967 77.0664 61.9501C75.2497 63.4035 73.1302 64.1301 70.7079 64.1301ZM67.892 48.4155C67.892 51.6856 68.4976 54.229 69.7087 56.0457C70.9199 57.8624 72.5852 58.7708 74.7046 58.7708C76.0369 58.7708 77.2784 58.3772 78.4289 57.5899C79.6401 56.8027 80.5787 55.8035 81.2449 54.5923L81.154 53.9565L76.9755 27.2507C73.8871 30.5208 71.586 33.9423 70.0721 37.5152C68.6187 41.0275 67.892 44.661 67.892 48.4155ZM95.8963 63.2217V62.4042C96.7444 62.162 97.3501 61.5867 97.7133 60.6784C98.137 59.7095 98.3492 58.3166 98.3492 56.4999V26.2515C98.3492 23.8293 98.1672 22.1034 97.804 21.0739C97.5011 20.0444 96.8652 19.2269 95.8963 18.6213V17.8038L107.523 16.078L107.796 25.0707C108.643 22.2851 109.764 20.105 111.157 18.5305C112.61 16.956 114.154 16.1688 115.789 16.1688C116.94 16.1688 117.818 16.4716 118.424 17.0772C119.09 17.6827 119.423 18.5305 119.423 19.6205C119.423 20.5289 119.151 21.2858 118.605 21.8914C118.06 22.4365 117.364 22.7089 116.516 22.7089C115.668 22.7089 115.032 22.5878 114.609 22.3456C114.184 22.0429 113.64 21.8914 112.974 21.8914C111.944 21.8914 110.944 22.497 109.976 23.7082C109.068 24.9193 108.372 26.4938 107.887 28.4317V54.3199C107.887 56.9238 108.19 58.8011 108.795 59.9516C109.461 61.0417 110.673 61.8592 112.428 62.4042V63.2217H95.8963ZM123.129 17.8947C125.975 17.2891 128.307 15.8963 130.124 13.7162C132.001 11.5362 133.424 8.62939 134.393 4.99597H135.119V17.8947H140.933V20.4381H135.119V54.1382C135.119 56.7421 135.453 58.6497 136.119 59.8608C136.785 61.0114 138.056 61.8592 139.934 62.4042V63.2217H123.129V62.4042C123.977 62.162 124.583 61.5867 124.946 60.6784C125.37 59.7095 125.582 58.3166 125.582 56.4999V26.4332C125.582 24.3743 125.43 22.7392 125.128 21.5281C124.886 20.3169 124.22 19.3784 123.129 18.7122V17.8947ZM150.966 0C152.54 0 153.842 0.545018 154.872 1.63505C155.901 2.66452 156.415 3.93622 156.415 5.45015C156.415 7.02464 155.901 8.35692 154.872 9.4469C153.842 10.4764 152.54 10.9911 150.966 10.9911C149.391 10.9911 148.059 10.4764 146.969 9.4469C145.939 8.35692 145.425 7.02464 145.425 5.45015C145.425 3.93622 145.939 2.66452 146.969 1.63505C148.059 0.545018 149.391 0 150.966 0ZM144.153 17.8947L156.144 16.623V56.4999C156.144 58.3772 156.325 59.77 156.688 60.6784C157.051 61.5867 157.657 62.162 158.505 62.4042V63.2217H144.153V62.4042C145.001 62.162 145.606 61.5867 145.969 60.6784C146.394 59.7095 146.605 58.3166 146.605 56.4999V26.5241C146.605 24.1018 146.424 22.3456 146.06 21.2556C145.758 20.1656 145.122 19.3178 144.153 18.7122V17.8947ZM164.289 63.2217V62.4042C165.137 62.162 165.743 61.5867 166.106 60.6784C166.53 59.7095 166.742 58.3166 166.742 56.4999V26.4332C166.742 24.0109 166.56 22.2548 166.197 21.1648C165.894 20.0747 165.258 19.2269 164.289 18.6213V17.8038L175.916 16.078L176.189 23.0723C177.158 20.8317 178.611 19.0452 180.549 17.713C182.487 16.3807 184.637 15.7146 186.998 15.7146C190.693 15.7146 193.538 16.9258 195.537 19.3481C197.536 21.7097 198.535 25.1615 198.535 29.7033V56.4999C198.535 58.3772 198.716 59.77 199.079 60.6784C199.442 61.5867 200.048 62.162 200.896 62.4042V63.2217H186.544V62.4042C187.392 62.162 187.997 61.5867 188.361 60.6784C188.785 59.7095 188.997 58.3166 188.997 56.4999V30.43C188.997 24.1321 186.817 20.9831 182.456 20.9831C181.185 20.9831 179.973 21.2858 178.823 21.8914C177.733 22.497 176.885 23.3145 176.28 24.344V56.4999C176.28 58.3772 176.462 59.77 176.825 60.6784C177.188 61.5867 177.794 62.162 178.641 62.4042V63.2217H164.289ZM222.14 79.5722C216.811 79.5722 212.572 78.6638 209.423 76.8471C206.334 75.0304 204.79 72.5475 204.79 69.3986C204.79 67.2185 205.516 65.3109 206.97 63.6759C208.423 62.0409 210.422 60.7994 212.965 59.9516C209.271 58.5588 207.424 56.2274 207.424 52.9573C207.424 50.9589 208.03 49.1725 209.241 47.598C210.452 45.9629 212.088 44.6913 214.146 43.7829C211.724 42.6928 209.847 41.0275 208.515 38.7869C207.243 36.4857 206.607 33.7304 206.607 30.5208C206.607 25.9185 207.939 22.3153 210.604 19.7114C213.268 17.0469 216.962 15.7146 221.685 15.7146H225.773C227.226 15.7146 228.287 15.5329 228.953 15.1696C229.619 14.8063 230.255 14.1098 230.86 13.0803C231.405 12.1115 231.92 11.4453 232.404 11.082C232.889 10.6581 233.464 10.4461 234.13 10.4461C234.978 10.4461 235.644 10.7187 236.129 11.2636C236.613 11.7481 236.855 12.384 236.855 13.1712C236.855 15.9568 234.281 17.3496 229.134 17.3496H227.408V17.6221C230.315 18.3489 232.556 19.8627 234.13 22.1639C235.705 24.4045 236.492 27.1902 236.492 30.5208C236.492 35.1838 235.19 38.8475 232.586 41.512C229.982 44.1159 226.349 45.4179 221.685 45.4179C219.263 45.4179 217.083 45.0243 215.145 44.2371C213.874 45.4482 213.238 46.7804 213.238 48.2338C213.238 49.3844 213.631 50.2625 214.419 50.8681C215.206 51.4131 216.447 51.837 218.143 52.1397L228.407 53.5931C232.223 54.1382 235.008 55.319 236.765 57.1357C238.581 58.8919 239.489 61.3747 239.489 64.5843C239.489 67.5516 238.763 70.1556 237.309 72.3962C235.916 74.6974 233.918 76.4535 231.314 77.6646C228.771 78.9363 225.713 79.5722 222.14 79.5722ZM221.685 17.4405C217.871 17.4405 215.963 21.8006 215.963 30.5208C215.963 39.2411 217.871 43.6012 221.685 43.6012C223.502 43.6012 224.865 42.5112 225.773 40.3311C226.742 38.0905 227.226 34.8204 227.226 30.5208C227.226 26.2818 226.742 23.042 225.773 20.8014C224.804 18.5608 223.442 17.4405 221.685 17.4405ZM211.966 68.1269C211.966 70.9731 212.905 73.244 214.782 74.9396C216.72 76.6957 219.324 77.5738 222.594 77.5738C225.743 77.5738 228.195 76.7563 229.952 75.1213C231.768 73.4862 232.677 71.397 232.677 68.8536C232.677 65.7046 230.648 63.7365 226.59 62.9493L215.963 60.7691C215.418 60.6481 214.903 60.527 214.419 60.4058C213.692 61.2536 213.087 62.3134 212.602 63.5851C212.178 64.9173 211.966 66.4313 211.966 68.1269ZM46.2862 109.18C49.7985 119.778 54.2797 125.076 59.7299 125.076C61.486 125.076 62.8788 124.501 63.9083 123.351C64.9378 122.2 65.4526 120.686 65.4526 118.809C65.4526 116.629 64.9681 114.781 63.9992 113.268C63.0908 111.693 61.8796 110.3 60.3658 109.089C58.9124 107.878 57.3378 106.727 55.6423 105.637C53.9467 104.486 52.3419 103.246 50.828 101.914C49.3746 100.52 48.1635 98.9455 47.1946 97.1897C46.2862 95.3726 45.832 93.2234 45.832 90.7402C45.832 88.3787 46.3468 86.2891 47.3762 84.4728C48.4057 82.5954 49.8288 81.142 51.6455 80.1125C53.5228 79.083 55.6423 78.5683 58.004 78.5683C59.9419 78.5683 61.5769 78.8408 62.9091 79.3858C64.3019 79.8703 65.3617 80.1125 66.0884 80.1125C67.1179 80.1125 67.8445 79.7492 68.2684 79.0225H68.8135L69.9035 93.8291H69.086C65.9975 84.9267 62.243 80.4758 57.8223 80.4758C56.2479 80.4758 54.9459 80.9906 53.9164 82.0199C52.9475 82.9888 52.463 84.321 52.463 86.0172C52.463 87.7127 52.9172 89.1958 53.8255 90.4676C54.7945 91.7394 56.0359 92.9205 57.5498 94.0103C59.0638 95.0396 60.6685 96.1301 62.3641 97.2803C64.0598 98.3708 65.6645 99.6426 67.1784 101.096C68.6923 102.488 69.9035 104.184 70.8119 106.183C71.7808 108.121 72.2653 110.482 72.2653 113.268C72.2653 115.993 71.7202 118.384 70.6302 120.444C69.6007 122.503 68.1474 124.107 66.2701 125.258C64.3928 126.408 62.1522 126.984 59.5483 126.984C57.5498 126.984 55.7634 126.711 54.1889 126.166C52.6144 125.682 51.2216 125.44 50.0105 125.44C48.7387 125.44 47.8304 125.803 47.2854 126.529H46.7404L45.4687 109.18H46.2862ZM94.1152 126.984C90.6027 126.984 87.5139 125.985 84.8496 123.987C82.1852 121.927 80.0958 119.081 78.5819 115.447C77.0679 111.754 76.311 107.515 76.311 102.731C76.311 97.9464 77.0679 93.7376 78.5819 90.1044C80.0958 86.4711 82.1852 83.6549 84.8496 81.6567C87.5139 79.5977 90.6027 78.5683 94.1152 78.5683C97.688 78.5683 100.806 79.5977 103.471 81.6567C106.136 83.6549 108.194 86.4711 109.647 90.1044C111.162 93.7376 111.918 97.9464 111.918 102.731C111.918 107.515 111.162 111.754 109.647 115.447C108.194 119.081 106.106 121.927 103.38 123.987C100.716 125.985 97.6268 126.984 94.1152 126.984ZM94.1152 80.4758C91.7529 80.4758 89.9064 82.3832 88.5734 86.1985C87.3025 89.9533 86.6666 95.4641 86.6666 102.731C86.6666 109.997 87.3025 115.539 88.5734 119.353C89.9064 123.169 91.7529 125.076 94.1152 125.076C96.5371 125.076 98.3843 123.169 99.6561 119.353C100.988 115.539 101.654 109.997 101.654 102.731C101.654 95.4641 100.988 89.9533 99.6561 86.1985C98.3843 82.3832 96.5371 80.4758 94.1152 80.4758ZM133.412 126.984C129.899 126.984 126.811 125.985 124.147 123.987C121.482 121.927 119.393 119.081 117.879 115.447C116.365 111.754 115.608 107.515 115.608 102.731C115.608 97.9464 116.365 93.7376 117.879 90.1044C119.393 86.4711 121.482 83.6549 124.147 81.6567C126.811 79.5977 129.899 78.5683 133.412 78.5683C136.985 78.5683 140.104 79.5977 142.768 81.6567C145.432 83.6549 147.492 86.4711 148.945 90.1044C150.459 93.7376 151.216 97.9464 151.216 102.731C151.216 107.515 150.459 111.754 148.945 115.447C147.492 119.081 145.402 121.927 142.677 123.987C140.013 125.985 136.924 126.984 133.412 126.984ZM133.412 80.4758C131.05 80.4758 129.203 82.3832 127.871 86.1985C126.599 89.9533 125.963 95.4641 125.963 102.731C125.963 109.997 126.599 115.539 127.871 119.353C129.203 123.169 131.05 125.076 133.412 125.076C135.835 125.076 137.681 123.169 138.953 119.353C140.285 115.539 140.951 109.997 140.951 102.731C140.951 95.4641 140.285 89.9533 138.953 86.1985C137.681 82.3832 135.835 80.4758 133.412 80.4758ZM155.995 126.075V125.258C156.843 125.016 157.449 124.44 157.812 123.532C158.236 122.563 158.448 121.17 158.448 119.353V89.2873C158.448 86.8645 158.266 85.1087 157.903 84.0182C157.6 82.9284 156.964 82.0803 155.995 81.4754V80.6575L167.622 78.9317L167.895 85.9258C168.864 83.6851 170.317 81.8991 172.255 80.5667C174.192 79.2344 176.343 78.5683 178.704 78.5683C182.399 78.5683 185.244 79.7795 187.243 82.2019C189.241 84.5634 190.241 88.0155 190.241 92.5573V119.353C190.241 121.231 190.422 122.623 190.786 123.532C191.149 124.44 191.755 125.016 192.602 125.258V126.075H178.25V125.258C179.098 125.016 179.703 124.44 180.067 123.532C180.491 122.563 180.702 121.17 180.702 119.353V93.2838C180.702 86.9862 178.523 83.8369 174.162 83.8369C172.89 83.8369 171.68 84.1398 170.529 84.7455C169.439 85.3503 168.591 86.1683 167.985 87.1976V119.353C167.985 121.231 168.167 122.623 168.531 123.532C168.894 124.44 169.5 125.016 170.348 125.258V126.075H155.995Z" fill="white"/>
</svg>
