<svg width="120" height="32" viewBox="0 0 120 32" fill="none" xmlns="http://www.w3.org/2000/svg">
<g clip-path="url(#clip0_3_6368)">
<path d="M8.69768 23.3583V13.1997H10.8984C14.9715 13.1997 17.862 14.6411 17.862 19.4566C17.862 23.5342 16.1211 25.4674 12.2451 25.4674C10.3729 25.4674 8.69768 25.3972 8.69768 23.3583ZM8.69768 12.2184V3.75455C8.69768 2.47015 8.91116 2.4043 10.5835 2.4043C15.2804 2.4043 17.3798 3.42522 17.3798 6.94907C17.3798 10.1436 15.6007 12.1525 11.9713 12.2184H8.69768ZM3.12385 5.20833V22.1727C3.12385 25.1871 2.81979 25.4674 0.015625 25.5025V26.4489H12.212C17.1447 26.4489 22.6854 25.5726 22.6854 19.6842C22.6854 15.408 18.7664 13.5853 15.3202 12.8844V12.8143C18.327 12.2535 21.2663 10.4309 21.2663 6.89076C21.2663 1.7033 14.9149 0.93219 10.7931 0.93219H0.015625V1.87855C2.81979 1.9136 3.12385 2.19401 3.12385 5.20833ZM27.5953 13.7526C27.5953 13.3412 27.2049 12.9298 25.3591 12.827V12.0041C27.4533 11.627 29.5121 10.9756 31.571 10.2556V23.8669C31.571 24.9297 31.7839 25.1353 33.5588 25.1353V25.9582H25.4656V25.1353C27.3824 25.1353 27.5953 24.9297 27.5953 23.8669V13.7526ZM32.093 3.51976C32.093 4.99838 30.8398 6.10735 29.5496 6.10735C28.2595 6.10735 27.0062 4.99838 27.0062 3.51976C27.0062 2.04115 28.2595 0.93219 29.5496 0.93219C30.8398 0.93219 32.093 2.04115 32.093 3.51976ZM45.1002 12.1247C45.1728 12.2183 45.2379 12.3254 45.294 12.4478L51.4073 26.3675H52.34L57.3827 14.0249L62.529 26.3675H63.5652L68.3316 14.5392C68.8843 13.1335 69.4713 11.7621 71.0947 11.4878V10.665H65.8792V11.4878L65.957 11.5007C66.9616 11.6665 67.8481 11.8127 67.8481 12.4478C67.8481 12.7221 67.6409 13.2364 67.3644 13.922L64.6014 21.4648L61.3892 13.5449C61.3403 13.4114 61.2653 13.2348 61.189 13.0548C61.0498 12.7266 60.9057 12.3871 60.9057 12.2764C60.9057 11.8307 61.7692 11.5907 63.0816 11.4878V10.665H54.0323V11.4878C56.0356 11.6593 56.6574 12.3107 56.6574 12.8935C56.6574 13.2412 56.4599 13.7114 56.2111 14.3041C56.1656 14.4126 56.1184 14.5253 56.0702 14.642L53.3761 21.3277L50.1295 13.785C50.0558 13.5969 49.979 13.4217 49.9077 13.2592C49.7449 12.8882 49.6114 12.5834 49.6114 12.345C49.6114 11.8992 50.5093 11.4878 51.9601 11.4878V10.665H43.6016V10.672L40.395 10.6774V4.85786L34.9186 11.0562V11.8827H36.7222V23.2464C36.7222 25.106 38.2634 26.4489 40.5918 26.4489C42.0348 26.4489 44.2646 25.4502 45.0846 24.2449V23.0053C44.3302 23.7284 43.412 24.5893 42.3298 24.5893C40.559 24.5893 40.395 23.3841 40.395 22.5576V11.8827L44.1719 11.8752C44.1719 11.8752 44.9382 11.9384 45.1002 12.1247ZM72.5409 12.827C74.3867 12.9298 74.7771 13.3412 74.7771 13.7526V23.8669C74.7771 24.9297 74.5641 25.1353 72.6473 25.1353V25.9582H80.7406V25.1353C78.9658 25.1353 78.7527 24.9297 78.7527 23.8669V10.2556C76.6939 10.9756 74.6351 11.627 72.5409 12.0041V12.827ZM76.7689 6.10735C78.0591 6.10735 79.3124 4.99838 79.3124 3.51976C79.3124 2.04115 78.0591 0.93219 76.7689 0.93219C75.4788 0.93219 74.2255 2.04115 74.2255 3.51976C74.2255 4.99838 75.4788 6.10735 76.7689 6.10735ZM95.0217 11.525C93.0434 10.8045 91.2417 10.2556 89.4402 10.2556C86.6848 10.2556 83.1521 11.6622 83.1521 14.8186C83.1521 17.2887 85.4131 18.5581 87.6739 19.5873C89.9347 20.6509 92.1956 21.5087 92.1956 23.1554C92.1956 24.5276 91.3477 25.6255 89.8641 25.6255C86.4375 25.6255 84.7419 22.8466 84.106 19.9304L83.2581 20.0677L83.5761 25.2481C84.9891 25.8656 87.5325 26.4489 89.0516 26.4489C92.4429 26.4489 95.6929 25.3853 95.6929 21.5771C95.6929 18.9355 93.3261 17.7689 91.1358 16.7054C88.4511 15.4019 86.4375 14.5098 86.4375 13.3433C86.4375 12.0396 87.6385 11.079 88.875 11.079C91.7718 11.079 93.2907 13.755 94.174 16.1222L95.0217 16.0536V11.525ZM112.479 20.4794L112.97 20.994C111.567 24.356 109.181 26.4489 105.287 26.4489C100.271 26.4489 97.535 23.3612 97.535 18.6266C97.535 13.9265 100.973 10.2556 105.779 10.2556C109.567 10.2556 112.9 13.0345 112.9 16.877H101.464C101.289 20.1706 103.393 23.3612 107.041 23.3612C109.462 23.3612 111.041 22.3319 112.479 20.4794ZM101.481 16.144H107.863C108.511 16.144 108.716 16.0451 108.716 15.3531C108.716 13.3097 107.146 11.7277 105.303 11.7277C102.436 11.7277 101.617 14.1335 101.481 16.144Z" fill="white"/>
<path d="M114.97 12.5726C116.503 12.5726 117.733 11.3089 117.733 9.74124C117.733 8.17358 116.503 6.90985 114.97 6.90985C113.443 6.90985 112.207 8.17358 112.207 9.74124C112.207 11.3089 113.443 12.5726 114.97 12.5726ZM114.97 11.8475C113.823 11.8475 112.9 10.909 112.9 9.74124C112.9 8.56816 113.823 7.63503 114.97 7.63503C116.123 7.63503 117.04 8.56816 117.04 9.74124C117.04 10.909 116.123 11.8475 114.97 11.8475ZM114.532 10.9996V10.1198H114.923L115.502 10.9996H116.279L115.617 10.0239C115.956 9.92254 116.154 9.62926 116.154 9.23467C116.154 8.73879 115.773 8.40286 115.215 8.40286H113.88V10.9996H114.532ZM114.532 8.95741H115.059C115.32 8.95741 115.455 9.06939 115.455 9.28268C115.455 9.5013 115.32 9.60261 115.049 9.60261H114.532V8.95741Z" fill="white"/>
</g>
<defs>
<clipPath id="clip0_3_6368">
<rect width="119.971" height="31.2969" fill="white" transform="translate(0.015625)"/>
</clipPath>
</defs>
</svg>
