<svg width="68" height="30" viewBox="0 0 68 30" fill="none" xmlns="http://www.w3.org/2000/svg">
<g clip-path="url(#clip0_3_6377)">
<path fill-rule="evenodd" clip-rule="evenodd" d="M119.814 23.1426C114.799 31.6445 106.858 29.1775 104.473 27.246C103.458 27.9347 101.678 29.4444 99.3041 29.2701C94.2494 28.899 92.4393 21.6756 92.4393 21.6756C92.4756 21.7045 90.9336 22.2077 90.1003 22.1987C90.0895 24.3171 88.2584 29.3773 83.3166 29.3125C77.7712 29.2402 76.6438 20.9785 76.6438 20.9785C76.6438 20.9785 76.092 21.7448 73.9937 22.5081C74.0994 20.8806 74.0222 29.0648 67.3757 29.1851C62.1213 29.2803 60.7029 20.8511 60.7029 20.8511C60.7029 20.8511 59.7914 21.798 58.0249 22.1264C58.1372 20.4725 57.9546 29.2129 51.3074 29.1851C46.8153 29.1665 45.2803 23.9927 45.3996 23.2746C45.552 22.3595 43.8815 29.3138 39.5181 29.2055C37.7174 29.1526 36.375 27.8488 35.5326 26.1107C34.4049 27.4011 32.7677 29.2055 30.9311 29.2055C27.6343 29.2055 26.1808 26.448 26.427 18.5722C26.448 17.6381 26.3806 17.2707 25.452 17.1309C24.8946 17.0379 24.3238 16.8619 23.7199 16.7691C23.5263 17.415 21.8845 28.9953 16.239 29.2151C14.345 29.2888 13.3094 27.6482 12.4589 26.4305C11.1552 28.1552 9.43423 29.2701 6.98253 29.2701C2.82955 29.2701 0 25.9127 0 21.7713C0 17.6297 2.82955 14.2728 6.98253 14.2728C7.71682 14.2728 7.92295 14.378 8.59377 14.5737C7.21421 2.01322 10.4722 0.0501894 13.3222 0.0501894C16.0584 0.0501894 20.7328 6.4008 14.1555 22.5093C15.6158 27.3141 18.7639 27.0423 20.2767 17.1515C20.5846 15.141 19.7613 12.4279 21.0418 12.0492C23.3826 11.3572 23.631 13.4335 24.7285 13.7794C25.8891 14.145 26.5664 14.1093 27.6805 14.342C29.5843 14.7138 30.3272 15.7365 30.0952 18.0142C29.8167 20.8963 29.3294 25.0911 30.8151 25.6023C31.8864 25.9737 33.8424 23.7519 34.1856 22.5363C34.5287 21.3207 34.6004 20.9046 34.6309 20.013C34.6773 18.1074 34.7356 16.7105 35.0605 15.2693C35.1996 14.7116 35.3582 14.3423 35.9891 14.3171C36.5083 14.3038 37.4577 14.1475 37.8756 14.4728C38.4327 14.8914 38.3631 15.3161 38.2991 16.4338C37.6513 32.3708 42.6376 24.4149 44.1243 18.0447C43.5949 10.8414 43.9584 0.182094 48.4723 0.00331757C50.8198 -0.0896561 51.8577 1.79102 51.9718 3.19476C52.2947 7.15947 50.486 13.7269 48.1074 18.1435C46.7479 27.1554 54.0513 28.9372 55.2193 21.744C53.3084 20.8355 51.2433 17.1581 52.9238 15.366C53.8667 14.3603 57.7918 15.8051 57.8561 18.9564C59.7815 18.4415 60.0385 17.3544 60.0652 17.5345C59.5359 10.3312 60.0268 0.182187 64.541 0.00340961C66.8883 -0.0895641 67.926 1.79111 68.0402 3.19486C68.363 7.15955 66.5544 13.727 64.176 18.1437C62.8164 27.1554 70.1199 28.9374 71.2876 21.7442C69.8728 21.4712 66.8864 17.5598 68.6095 15.3661C69.5304 14.1939 73.4411 16.6317 73.8789 19.0607C75.7285 18.5373 75.9797 17.4848 76.0063 17.6619C75.4768 10.4589 75.9677 0.309845 80.4819 0.131068C82.8292 0.0380943 83.8669 1.91877 83.981 3.32252C84.3039 7.28721 82.4953 13.8548 80.1166 18.2714C78.7573 27.2833 86.0607 29.0648 87.2286 21.8716C85.2845 21.5479 82.5215 17.418 84.7453 15.3053C85.6337 14.4611 89.0286 16.6524 89.8233 19.1523C90.9275 19.1098 91.6148 18.729 91.7621 18.6906C89.9994 10.2344 91.3116 0.0882286 96.1677 0.00353359C98.7924 -0.0421993 101.358 1.42248 100.232 9.46743C99.1569 17.1433 95.2925 20.3645 95.3015 20.4137C95.5263 21.3333 97.5093 29.0291 102.503 24.9685C102.244 24.3832 101.986 23.7853 101.841 23.0608C101.013 18.8411 102.639 14.0749 107.058 13.3046C109.589 12.8632 111.974 14.0958 112.351 16.8745C112.972 21.4214 108.866 24.7143 107.305 25.4286C106.605 25.0314 113.643 29.5453 117.82 20.4993C118.063 19.9828 118.355 20.0266 118.733 20.2928C119 20.4808 120.522 21.9224 119.814 23.1426ZM10.0035 20.6541C9.79093 20.0187 9.35477 18.6186 9.20054 18.012C8.35113 17.2734 7.74485 17.1534 6.65455 17.1534C4.23158 17.1534 2.80546 19.3936 2.80546 21.8092C2.80546 24.2247 4.35911 26.4652 6.7821 26.4652C8.88189 26.4652 10.48 25.0375 10.9676 23.0165C10.6263 22.2286 10.2878 21.5045 10.0035 20.6541ZM13.2628 3.37505C11.5603 3.37505 10.9828 7.43642 11.0949 10.9011C11.194 13.9644 12.05 16.6612 12.494 17.8696C12.6067 18.021 12.5858 17.9225 12.6864 18.0831C15.6425 11.6061 14.4164 3.37505 13.2628 3.37505ZM48.7154 3.50263C46.515 3.25026 46.5292 12.4167 46.8024 14.4728C47.9452 12.6446 49.9304 3.99488 48.7154 3.50263ZM64.7837 3.50263C62.5833 3.25026 62.5975 12.4167 62.8708 14.4728C64.0135 12.6446 65.9989 3.99488 64.7837 3.50263ZM80.7248 3.63016C78.5242 3.37779 78.5384 12.5442 78.8117 14.6005C79.9544 12.7721 81.9398 4.12238 80.7248 3.63016ZM96.4105 2.96604C92.9822 3.65449 93.7805 15.0852 94.3012 17.0901C98.3395 11.5434 98.4227 2.75769 96.4105 2.96604ZM109.259 17.2506C109.085 16.5218 108.213 16.1323 107.612 16.2283C105.89 16.4634 104.221 18.6073 104.867 21.8713C105.011 22.5982 105.371 23.2674 105.365 23.2451C109.218 20.6605 109.545 18.6238 109.259 17.2506ZM36.6639 11.7941C36.1719 11.7942 35.691 11.6484 35.2819 11.3751C34.8728 11.1018 34.5538 10.7133 34.3655 10.2588C34.1771 9.8043 34.1278 9.30412 34.2238 8.82158C34.3197 8.33902 34.5567 7.89576 34.9045 7.54784C35.2524 7.19992 35.6956 6.96298 36.1781 6.86698C36.6606 6.77098 37.1608 6.82023 37.6154 7.00852C38.07 7.19679 38.4584 7.51565 38.7317 7.92474C39.0051 8.33383 39.1509 8.81479 39.1509 9.30677C39.1509 9.6334 39.0867 9.95683 38.9616 10.2586C38.8367 10.5603 38.6536 10.8345 38.4226 11.0655C38.1916 11.2965 37.9175 11.4797 37.6157 11.6047C37.314 11.7297 36.9906 11.7941 36.6639 11.7941Z" fill="white"/>
</g>
<defs>
<clipPath id="clip0_3_6377">
<rect width="120" height="30" fill="white"/>
</clipPath>
</defs>
</svg>
