<svg width="12" height="11" viewBox="0 0 12 11" fill="none" xmlns="http://www.w3.org/2000/svg">
<path fill-rule="evenodd" clip-rule="evenodd" d="M5.9227 10.1946C8.6959 10.1946 10.5976 9.1359 11.4097 7.3519C11.7068 6.6853 11.8653 5.9403 11.8653 5.0973C11.8653 4.2739 11.7068 3.5289 11.4097 2.8623C10.5976 1.0783 8.6959 0 5.9227 0C3.1693 0 1.2677 1.0783 0.435799 2.9015C0.138599 3.5485 0 4.2935 0 5.0973C0 5.9207 0.138599 6.6461 0.435799 7.3127C1.2677 9.1163 3.1693 10.1946 5.9227 10.1946ZM5.9227 8.2341C4.4173 8.2341 3.2684 7.6655 2.7732 6.6069C2.5949 6.1756 2.4959 5.6854 2.4959 5.0973C2.4959 4.5288 2.5949 4.019 2.7732 3.6073C3.2684 2.5486 4.4173 1.9801 5.9227 1.9801C7.4282 1.9801 8.5969 2.529 9.0921 3.6073C9.2704 4.019 9.3496 4.5288 9.3496 5.0973C9.3496 5.6854 9.2704 6.1756 9.0921 6.6069C8.5969 7.6655 7.4282 8.2341 5.9227 8.2341Z" fill="white"/>
</svg>
