<svg width="28" height="32" viewBox="0 0 28 32" fill="none" xmlns="http://www.w3.org/2000/svg">
<path fill-rule="evenodd" clip-rule="evenodd" d="M0 13.8667C0 6.20832 6.20832 0 13.8667 0C21.525 0 27.7333 6.20832 27.7333 13.8667V32H20.2667H12.8H0V23.4667V18.6667V13.8667ZM2.13333 23.4667V29.8667H10.6667V23.4667C10.6667 21.1103 8.75642 19.2 6.4 19.2C4.04359 19.2 2.13333 21.1103 2.13333 23.4667ZM12.8 29.8667V23.4667C12.8 19.932 9.93462 17.0667 6.4 17.0667C4.76084 17.0667 3.26561 17.6829 2.13333 18.6963V18.6667C2.13333 14.2484 5.71506 10.6667 10.1333 10.6667C14.5516 10.6667 18.1333 14.2484 18.1333 18.6667V29.8667H12.8ZM25.6 29.8667H20.2667V18.6667C20.2667 13.0702 15.7298 8.53333 10.1333 8.53333C6.94016 8.53333 4.09195 10.0103 2.23459 12.3183C2.99238 6.57 7.9114 2.13333 13.8667 2.13333C20.3468 2.13333 25.6 7.38653 25.6 13.8667V29.8667Z" fill="white"/>
</svg>
