<svg width="12" height="11" viewBox="0 0 12 11" fill="none" xmlns="http://www.w3.org/2000/svg">
<path fill-rule="evenodd" clip-rule="evenodd" d="M8.6564 7.6459C8.0819 8.1753 7.1113 8.4105 6.0218 8.4105C4.4173 8.4105 3.1694 7.9008 2.694 6.8421C2.5355 6.5285 2.4563 6.1952 2.4167 5.7835H11.7267C11.7267 4.6268 11.5682 3.7249 11.2117 2.8623C10.3995 1.0783 8.5375 0 5.8634 0C3.2288 0 1.2678 0.9999 0.455597 2.8231C0.158497 3.4897 0 4.2151 0 5.1169C0 5.9795 0.138697 6.7245 0.455597 7.3715C1.2678 9.1947 3.2684 10.2142 6.002 10.2142C7.8046 10.2142 9.4091 9.8025 10.4788 8.8418C10.9402 8.4267 11.2733 7.9431 11.4781 7.3705H8.917C8.84 7.4699 8.7528 7.5625 8.6564 7.6459ZM5.8634 1.8233C7.3886 1.8233 8.5771 2.2938 9.0724 3.3721C9.1714 3.6073 9.2506 3.823 9.29029 4.0974H2.4563C2.4959 3.8622 2.5751 3.6465 2.6742 3.4309C3.1694 2.333 4.2985 1.8233 5.8634 1.8233Z" fill="white"/>
</svg>
