<svg width="12" height="11" viewBox="0 0 12 11" fill="none" xmlns="http://www.w3.org/2000/svg">
<path d="M10.2212 8.8026C9.1714 9.7241 7.6461 10.2142 5.7841 10.2142C3.2486 10.2142 1.2875 9.2536 0.455597 7.4107C0.158497 6.7441 0 5.9795 0 5.0973C0 4.2347 0.158497 3.4505 0.455597 2.8035C1.2875 0.9999 3.209 0 5.7841 0C7.6461 0 9.1515 0.4705 10.2014 1.4312C10.9739 2.0977 11.3899 2.98 11.4493 4.0386H8.894C8.8346 3.4701 8.59689 3.0192 8.24039 2.6859C7.68569 2.1958 6.7943 1.9801 5.8039 1.9801C4.3579 1.9801 3.2684 2.529 2.793 3.5289C2.6147 3.9798 2.5157 4.4503 2.5157 5.0973C2.5157 5.7247 2.6147 6.2148 2.793 6.6461C3.2684 7.6459 4.3579 8.1949 5.8039 8.1949C6.7943 8.1949 7.70549 7.9792 8.24039 7.4695C8.63649 7.1362 8.8742 6.6657 8.894 6.1168H11.489C11.4097 7.195 10.9938 8.0969 10.2212 8.8026Z" fill="white"/>
</svg>
