<svg width="40" height="40" viewBox="0 0 40 40" fill="none" xmlns="http://www.w3.org/2000/svg">
<path d="M36.6667 33.3333C36.6667 33.9926 36.4712 34.6371 36.1049 35.1852C35.7386 35.7334 35.218 36.1606 34.609 36.4129C33.9999 36.6652 33.3296 36.7312 32.683 36.6026C32.0364 36.474 31.4425 36.1565 30.9763 35.6903C30.5101 35.2242 30.1927 34.6302 30.0641 33.9836C29.9354 33.337 30.0015 32.6668 30.2537 32.0577C30.506 31.4486 30.9333 30.928 31.4814 30.5617C32.0296 30.1955 32.6741 30 33.3333 30C34.2174 30 35.0652 30.3512 35.6904 30.9763C36.3155 31.6014 36.6667 32.4493 36.6667 33.3333ZM6.66668 31.6666C7.32595 31.6666 7.97041 31.4712 8.51858 31.1049C9.06674 30.7386 9.49398 30.218 9.74628 29.6089C9.99857 28.9998 10.0646 28.3296 9.93596 27.683C9.80734 27.0364 9.48987 26.4425 9.0237 25.9763C8.55752 25.5101 7.96358 25.1926 7.31698 25.064C6.67037 24.9354 6.00015 25.0014 5.39107 25.2537C4.78198 25.506 4.26138 25.9332 3.89511 26.4814C3.52884 27.0296 3.33334 27.674 3.33334 28.3333C3.33334 29.2174 3.68453 30.0652 4.30965 30.6903C4.93478 31.3155 5.78262 31.6666 6.66668 31.6666ZM33.3333 3.33331C32.6741 3.33331 32.0296 3.52881 31.4814 3.89508C30.9333 4.26135 30.506 4.78195 30.2537 5.39103C30.0015 6.00012 29.9354 6.67034 30.0641 7.31695C30.1927 7.96355 30.5101 8.55749 30.9763 9.02367C31.4425 9.48984 32.0364 9.80731 32.683 9.93593C33.3296 10.0645 33.9999 9.99854 34.609 9.74624C35.218 9.49395 35.7386 9.06671 36.1049 8.51855C36.4712 7.97038 36.6667 7.32592 36.6667 6.66664C36.6667 5.78259 36.3155 4.93474 35.6904 4.30962C35.0652 3.6845 34.2174 3.33331 33.3333 3.33331ZM9.19084 3.40464C7.90897 3.18247 6.59098 3.46868 5.51671 4.2025C4.44244 4.93632 3.69649 6.05997 3.43725 7.33486C3.178 8.60975 3.42588 9.93549 4.12825 11.0306C4.83062 12.1257 5.93217 12.9039 7.19901 13.2C8.44682 13.4968 9.76133 13.2908 10.8585 12.6265L12.8402 14.6081C13.2711 15.0375 13.5751 15.5775 13.7185 16.1686C13.862 16.7598 13.8394 17.379 13.6532 17.9581C13.4407 18.6179 13.3328 19.3069 13.3333 20C13.3333 20.2013 13.3429 20.4001 13.362 20.5965C13.4119 21.1979 13.2936 21.8013 13.0202 22.3393C12.7468 22.8772 12.3292 23.3286 11.814 23.6428L10.829 24.2585C11.4149 24.8644 11.8624 25.5902 12.1407 26.3858L13.1473 25.7566C13.6683 25.4329 14.2687 25.2595 14.882 25.2555C15.4954 25.2516 16.0979 25.4173 16.623 25.7343C17.6433 26.3456 18.8106 26.6679 20 26.6666C20.6933 26.6673 21.3823 26.5594 22.0422 26.3468C22.6213 26.1606 23.2405 26.138 23.8317 26.2814C24.4228 26.4249 24.9628 26.7288 25.3922 27.1596L28.4305 30.198C28.8856 29.4884 29.4885 28.8855 30.198 28.4305L27.1598 25.3921C26.7289 24.9628 26.4249 24.4228 26.2815 23.8317C26.138 23.2405 26.1606 22.6212 26.3468 22.0421C26.7733 20.7139 26.7733 19.2854 26.3468 17.9571C26.1606 17.378 26.138 16.7588 26.2815 16.1676C26.4249 15.5765 26.7289 15.0365 27.1598 14.6071L30.198 11.5688C29.4885 11.1138 28.8856 10.5109 28.4305 9.80131L25.3922 12.8395C24.9629 13.2704 24.4228 13.5744 23.8317 13.7178C23.2406 13.8613 22.6213 13.8387 22.0422 13.6525C20.7139 13.226 19.2855 13.226 17.9572 13.6525C17.3781 13.8387 16.7588 13.8613 16.1677 13.7178C15.5765 13.5744 15.0365 13.2704 14.6072 12.8395L12.6255 10.8578C13.29 9.76095 13.4964 8.44671 13.2 7.19898C12.9723 6.24556 12.4719 5.37907 11.76 4.70528C11.0481 4.03149 10.1553 3.57955 9.19084 3.40464Z" fill="#0083FF"/>
</svg>
